<svg width="25" height="24" viewBox="0 0 25 24" fill="none" xmlns="http://www.w3.org/2000/svg">
<g id="file-text">
<path id="Vector" d="M14.875 2H6.875C6.34457 2 5.83586 2.21071 5.46079 2.58579C5.08571 2.96086 4.875 3.46957 4.875 4V20C4.875 20.5304 5.08571 21.0391 5.46079 21.4142C5.83586 21.7893 6.34457 22 6.875 22H18.875C19.4054 22 19.9141 21.7893 20.2892 21.4142C20.6643 21.0391 20.875 20.5304 20.875 20V8L14.875 2Z" stroke="#E69D2B" stroke-linecap="round" stroke-linejoin="round"/>
<path id="Vector_2" d="M14.875 2V8H20.875" stroke="#E69D2B" stroke-linecap="round" stroke-linejoin="round"/>
<path id="Vector_3" d="M16.875 13H8.875" stroke="#E69D2B" stroke-linecap="round" stroke-linejoin="round"/>
<path id="Vector_4" d="M16.875 17H8.875" stroke="#E69D2B" stroke-linecap="round" stroke-linejoin="round"/>
<path id="Vector_5" d="M10.875 9H9.875H8.875" stroke="#E69D2B" stroke-linecap="round" stroke-linejoin="round"/>
</g>
</svg>
