<svg width="25" height="24" viewBox="0 0 25 24" fill="none" xmlns="http://www.w3.org/2000/svg">
<g id="ph:chalkboard-teacher-thin">
<path id="Vector" d="M22.1429 3H3.28571C2.94472 3 2.6177 3.13546 2.37658 3.37658C2.13546 3.6177 2 3.94472 2 4.28571V19.7143C2 20.0553 2.13546 20.3823 2.37658 20.6234C2.6177 20.8645 2.94472 21 3.28571 21H4.72036C4.80143 20.9999 4.88081 20.9768 4.94928 20.9333C5.01774 20.8899 5.07248 20.8279 5.10714 20.7546C5.55856 19.801 6.27147 18.9952 7.16294 18.4309C8.05441 17.8666 9.08779 17.567 10.1429 17.567C11.1979 17.567 12.2313 17.8666 13.1228 18.4309C14.0142 18.9952 14.7272 19.801 15.1786 20.7546C15.2132 20.8279 15.268 20.8899 15.3364 20.9333C15.4049 20.9768 15.4843 20.9999 15.5654 21H22.1429C22.4839 21 22.8109 20.8645 23.052 20.6234C23.2931 20.3823 23.4286 20.0553 23.4286 19.7143V4.28571C23.4286 3.94472 23.2931 3.6177 23.052 3.37658C22.8109 3.13546 22.4839 3 22.1429 3ZM22.5714 19.7143C22.5714 19.8279 22.5263 19.937 22.4459 20.0173C22.3655 20.0977 22.2565 20.1429 22.1429 20.1429H15.83C15.042 18.6622 13.7098 17.5455 12.1143 17.0282C12.8404 16.5964 13.4047 15.9381 13.7205 15.1545C14.0362 14.3709 14.086 13.5053 13.8621 12.6907C13.6382 11.876 13.153 11.1575 12.4811 10.6453C11.8092 10.1332 10.9877 9.8558 10.1429 9.8558C9.29802 9.8558 8.47655 10.1332 7.80464 10.6453C7.13274 11.1575 6.64756 11.876 6.42365 12.6907C6.19974 13.5053 6.24948 14.3709 6.56523 15.1545C6.88098 15.9381 7.44528 16.5964 8.17143 17.0282C6.57593 17.5455 5.2437 18.6622 4.45571 20.1429H3.28571C3.17205 20.1429 3.06304 20.0977 2.98267 20.0173C2.9023 19.937 2.85714 19.8279 2.85714 19.7143V4.28571C2.85714 4.17205 2.9023 4.06304 2.98267 3.98267C3.06304 3.9023 3.17205 3.85714 3.28571 3.85714H22.1429C22.2565 3.85714 22.3655 3.9023 22.4459 3.98267C22.5263 4.06304 22.5714 4.17205 22.5714 4.28571V19.7143ZM10.1429 16.7143C9.54951 16.7143 8.96949 16.5383 8.47615 16.2087C7.9828 15.8791 7.59828 15.4105 7.37122 14.8623C7.14416 14.3142 7.08475 13.711 7.2005 13.129C7.31626 12.5471 7.60198 12.0125 8.02154 11.593C8.44109 11.1734 8.97564 10.8877 9.55759 10.7719C10.1395 10.6562 10.7427 10.7156 11.2909 10.9426C11.8391 11.1697 12.3076 11.5542 12.6373 12.0476C12.9669 12.5409 13.1429 13.1209 13.1429 13.7143C13.1429 14.1083 13.0653 14.4984 12.9145 14.8623C12.7637 15.2263 12.5428 15.557 12.2642 15.8356C11.9856 16.1142 11.6549 16.3352 11.2909 16.4859C10.9269 16.6367 10.5368 16.7143 10.1429 16.7143ZM20 6.85714V17.1429C20 17.2565 19.9548 17.3655 19.8745 17.4459C19.7941 17.5263 19.6851 17.5714 19.5714 17.5714H17.8571C17.7435 17.5714 17.6345 17.5263 17.5541 17.4459C17.4737 17.3655 17.4286 17.2565 17.4286 17.1429C17.4286 17.0292 17.4737 16.9202 17.5541 16.8398C17.6345 16.7594 17.7435 16.7143 17.8571 16.7143H19.1429V7.28571H6.28571V8.57143C6.28571 8.68509 6.24056 8.7941 6.16019 8.87447C6.07982 8.95485 5.97081 9 5.85714 9C5.74348 9 5.63447 8.95485 5.5541 8.87447C5.47372 8.7941 5.42857 8.68509 5.42857 8.57143V6.85714C5.42857 6.74348 5.47372 6.63447 5.5541 6.5541C5.63447 6.47372 5.74348 6.42857 5.85714 6.42857H19.5714C19.6851 6.42857 19.7941 6.47372 19.8745 6.5541C19.9548 6.63447 20 6.74348 20 6.85714Z" fill="#8E8E93"/>
</g>
</svg>
